<mxfile host="app.diagrams.net" agent="Mozilla/5.0 (Windows NT 10.0; Win64; x64) AppleWebKit/537.36 (KHTML, like Gecko) Chrome/133.0.0.0 Safari/537.36 Edg/133.0.0.0" version="26.0.10">
  <diagram name="Page-1" id="4LS9cajnJzIN3FyBbS0g">
    <mxGraphModel dx="1753" dy="757" grid="1" gridSize="10" guides="1" tooltips="1" connect="1" arrows="1" fold="1" page="1" pageScale="1" pageWidth="850" pageHeight="1100" math="0" shadow="0">
      <root>
        <mxCell id="0" />
        <mxCell id="1" parent="0" />
        <mxCell id="YEOBfwv_ZGj8nD30T4eO-50" style="edgeStyle=orthogonalEdgeStyle;rounded=0;orthogonalLoop=1;jettySize=auto;html=1;exitX=0;exitY=0.25;exitDx=0;exitDy=0;exitPerimeter=0;entryX=0;entryY=0.25;entryDx=0;entryDy=0;entryPerimeter=0;" edge="1" parent="1" target="YEOBfwv_ZGj8nD30T4eO-1">
          <mxGeometry relative="1" as="geometry">
            <mxPoint x="40" y="52.76470588235293" as="sourcePoint" />
          </mxGeometry>
        </mxCell>
        <mxCell id="YEOBfwv_ZGj8nD30T4eO-1" value="" style="shape=or;whiteSpace=wrap;html=1;" vertex="1" parent="1">
          <mxGeometry x="100" y="40" width="50" height="50" as="geometry" />
        </mxCell>
        <mxCell id="YEOBfwv_ZGj8nD30T4eO-64" style="edgeStyle=orthogonalEdgeStyle;rounded=0;orthogonalLoop=1;jettySize=auto;html=1;exitX=0;exitY=0.75;exitDx=0;exitDy=0;exitPerimeter=0;entryX=0;entryY=0.75;entryDx=0;entryDy=0;entryPerimeter=0;" edge="1" parent="1" target="YEOBfwv_ZGj8nD30T4eO-2">
          <mxGeometry relative="1" as="geometry">
            <mxPoint x="50" y="157.47058823529414" as="sourcePoint" />
          </mxGeometry>
        </mxCell>
        <mxCell id="YEOBfwv_ZGj8nD30T4eO-2" value="" style="shape=or;whiteSpace=wrap;html=1;" vertex="1" parent="1">
          <mxGeometry x="100" y="120" width="50" height="50" as="geometry" />
        </mxCell>
        <mxCell id="YEOBfwv_ZGj8nD30T4eO-73" style="edgeStyle=orthogonalEdgeStyle;rounded=0;orthogonalLoop=1;jettySize=auto;html=1;exitX=0;exitY=0.75;exitDx=0;exitDy=0;exitPerimeter=0;entryX=0;entryY=0.75;entryDx=0;entryDy=0;entryPerimeter=0;" edge="1" parent="1" target="YEOBfwv_ZGj8nD30T4eO-3">
          <mxGeometry relative="1" as="geometry">
            <mxPoint x="40" y="252.76470588235293" as="sourcePoint" />
          </mxGeometry>
        </mxCell>
        <mxCell id="YEOBfwv_ZGj8nD30T4eO-3" value="" style="shape=or;whiteSpace=wrap;html=1;" vertex="1" parent="1">
          <mxGeometry x="100" y="200" width="50" height="70" as="geometry" />
        </mxCell>
        <mxCell id="YEOBfwv_ZGj8nD30T4eO-76" style="edgeStyle=orthogonalEdgeStyle;rounded=0;orthogonalLoop=1;jettySize=auto;html=1;exitX=0;exitY=0.25;exitDx=0;exitDy=0;exitPerimeter=0;entryX=0;entryY=0.25;entryDx=0;entryDy=0;entryPerimeter=0;" edge="1" parent="1" target="YEOBfwv_ZGj8nD30T4eO-4">
          <mxGeometry relative="1" as="geometry">
            <mxPoint x="50" y="295.11764705882354" as="sourcePoint" />
          </mxGeometry>
        </mxCell>
        <mxCell id="YEOBfwv_ZGj8nD30T4eO-78" style="edgeStyle=orthogonalEdgeStyle;rounded=0;orthogonalLoop=1;jettySize=auto;html=1;exitX=0;exitY=0.5;exitDx=0;exitDy=0;exitPerimeter=0;entryX=0;entryY=0.5;entryDx=0;entryDy=0;entryPerimeter=0;" edge="1" parent="1" target="YEOBfwv_ZGj8nD30T4eO-4">
          <mxGeometry relative="1" as="geometry">
            <mxPoint x="50" y="310.4117647058823" as="sourcePoint" />
          </mxGeometry>
        </mxCell>
        <mxCell id="YEOBfwv_ZGj8nD30T4eO-4" value="" style="shape=or;whiteSpace=wrap;html=1;" vertex="1" parent="1">
          <mxGeometry x="100" y="280" width="50" height="60" as="geometry" />
        </mxCell>
        <mxCell id="YEOBfwv_ZGj8nD30T4eO-80" style="edgeStyle=orthogonalEdgeStyle;rounded=0;orthogonalLoop=1;jettySize=auto;html=1;exitX=0;exitY=0.25;exitDx=0;exitDy=0;exitPerimeter=0;entryX=0;entryY=0.25;entryDx=0;entryDy=0;entryPerimeter=0;" edge="1" parent="1" target="YEOBfwv_ZGj8nD30T4eO-6">
          <mxGeometry relative="1" as="geometry">
            <mxPoint x="50" y="377.47058823529414" as="sourcePoint" />
          </mxGeometry>
        </mxCell>
        <mxCell id="YEOBfwv_ZGj8nD30T4eO-81" style="edgeStyle=orthogonalEdgeStyle;rounded=0;orthogonalLoop=1;jettySize=auto;html=1;exitX=0;exitY=0.5;exitDx=0;exitDy=0;exitPerimeter=0;entryX=0;entryY=0.5;entryDx=0;entryDy=0;entryPerimeter=0;" edge="1" parent="1" target="YEOBfwv_ZGj8nD30T4eO-6">
          <mxGeometry relative="1" as="geometry">
            <mxPoint x="50" y="395.11764705882354" as="sourcePoint" />
          </mxGeometry>
        </mxCell>
        <mxCell id="YEOBfwv_ZGj8nD30T4eO-6" value="" style="shape=or;whiteSpace=wrap;html=1;" vertex="1" parent="1">
          <mxGeometry x="100" y="360" width="50" height="70" as="geometry" />
        </mxCell>
        <mxCell id="YEOBfwv_ZGj8nD30T4eO-89" style="edgeStyle=orthogonalEdgeStyle;rounded=0;orthogonalLoop=1;jettySize=auto;html=1;exitX=0;exitY=0.25;exitDx=0;exitDy=0;exitPerimeter=0;entryX=0;entryY=0.25;entryDx=0;entryDy=0;entryPerimeter=0;" edge="1" parent="1" target="YEOBfwv_ZGj8nD30T4eO-8">
          <mxGeometry relative="1" as="geometry">
            <mxPoint x="50" y="464.52941176470586" as="sourcePoint" />
          </mxGeometry>
        </mxCell>
        <mxCell id="YEOBfwv_ZGj8nD30T4eO-90" style="edgeStyle=orthogonalEdgeStyle;rounded=0;orthogonalLoop=1;jettySize=auto;html=1;exitX=0;exitY=0.5;exitDx=0;exitDy=0;exitPerimeter=0;entryX=0;entryY=0.5;entryDx=0;entryDy=0;entryPerimeter=0;" edge="1" parent="1" target="YEOBfwv_ZGj8nD30T4eO-8">
          <mxGeometry relative="1" as="geometry">
            <mxPoint x="50" y="479.82352941176464" as="sourcePoint" />
          </mxGeometry>
        </mxCell>
        <mxCell id="YEOBfwv_ZGj8nD30T4eO-8" value="" style="shape=or;whiteSpace=wrap;html=1;" vertex="1" parent="1">
          <mxGeometry x="100" y="450" width="50" height="60" as="geometry" />
        </mxCell>
        <mxCell id="YEOBfwv_ZGj8nD30T4eO-10" value="" style="shape=xor;whiteSpace=wrap;html=1;" vertex="1" parent="1">
          <mxGeometry x="425" y="190" width="70" height="90" as="geometry" />
        </mxCell>
        <mxCell id="YEOBfwv_ZGj8nD30T4eO-12" value="" style="shape=xor;whiteSpace=wrap;html=1;" vertex="1" parent="1">
          <mxGeometry x="530" y="270" width="70" height="90" as="geometry" />
        </mxCell>
        <mxCell id="YEOBfwv_ZGj8nD30T4eO-47" style="edgeStyle=orthogonalEdgeStyle;rounded=0;orthogonalLoop=1;jettySize=auto;html=1;exitX=1;exitY=0.5;exitDx=0;exitDy=0;exitPerimeter=0;" edge="1" parent="1" source="YEOBfwv_ZGj8nD30T4eO-13">
          <mxGeometry relative="1" as="geometry">
            <mxPoint x="780" y="410" as="targetPoint" />
          </mxGeometry>
        </mxCell>
        <mxCell id="YEOBfwv_ZGj8nD30T4eO-13" value="" style="shape=xor;whiteSpace=wrap;html=1;" vertex="1" parent="1">
          <mxGeometry x="650" y="360" width="70" height="100" as="geometry" />
        </mxCell>
        <mxCell id="YEOBfwv_ZGj8nD30T4eO-14" value="" style="shape=xor;whiteSpace=wrap;html=1;" vertex="1" parent="1">
          <mxGeometry x="310" y="110" width="80" height="90" as="geometry" />
        </mxCell>
        <mxCell id="YEOBfwv_ZGj8nD30T4eO-15" value="" style="shape=xor;whiteSpace=wrap;html=1;" vertex="1" parent="1">
          <mxGeometry x="220" y="40" width="60" height="90" as="geometry" />
        </mxCell>
        <mxCell id="YEOBfwv_ZGj8nD30T4eO-25" style="edgeStyle=orthogonalEdgeStyle;rounded=0;orthogonalLoop=1;jettySize=auto;html=1;exitX=1;exitY=0.5;exitDx=0;exitDy=0;exitPerimeter=0;entryX=0.25;entryY=0.5;entryDx=0;entryDy=0;entryPerimeter=0;" edge="1" parent="1" source="YEOBfwv_ZGj8nD30T4eO-2" target="YEOBfwv_ZGj8nD30T4eO-15">
          <mxGeometry relative="1" as="geometry" />
        </mxCell>
        <mxCell id="YEOBfwv_ZGj8nD30T4eO-28" style="edgeStyle=orthogonalEdgeStyle;rounded=0;orthogonalLoop=1;jettySize=auto;html=1;exitX=1;exitY=0.5;exitDx=0;exitDy=0;exitPerimeter=0;entryX=0.175;entryY=0.25;entryDx=0;entryDy=0;entryPerimeter=0;" edge="1" parent="1" source="YEOBfwv_ZGj8nD30T4eO-1" target="YEOBfwv_ZGj8nD30T4eO-15">
          <mxGeometry relative="1" as="geometry" />
        </mxCell>
        <mxCell id="YEOBfwv_ZGj8nD30T4eO-31" style="edgeStyle=orthogonalEdgeStyle;rounded=0;orthogonalLoop=1;jettySize=auto;html=1;exitX=1;exitY=0.5;exitDx=0;exitDy=0;exitPerimeter=0;entryX=0.175;entryY=0.25;entryDx=0;entryDy=0;entryPerimeter=0;" edge="1" parent="1" source="YEOBfwv_ZGj8nD30T4eO-15" target="YEOBfwv_ZGj8nD30T4eO-14">
          <mxGeometry relative="1" as="geometry" />
        </mxCell>
        <mxCell id="YEOBfwv_ZGj8nD30T4eO-34" style="edgeStyle=orthogonalEdgeStyle;rounded=0;orthogonalLoop=1;jettySize=auto;html=1;exitX=1;exitY=0.5;exitDx=0;exitDy=0;exitPerimeter=0;entryX=0.25;entryY=0.5;entryDx=0;entryDy=0;entryPerimeter=0;" edge="1" parent="1" source="YEOBfwv_ZGj8nD30T4eO-3" target="YEOBfwv_ZGj8nD30T4eO-14">
          <mxGeometry relative="1" as="geometry" />
        </mxCell>
        <mxCell id="YEOBfwv_ZGj8nD30T4eO-35" style="edgeStyle=orthogonalEdgeStyle;rounded=0;orthogonalLoop=1;jettySize=auto;html=1;exitX=1;exitY=0.5;exitDx=0;exitDy=0;exitPerimeter=0;entryX=0.175;entryY=0.25;entryDx=0;entryDy=0;entryPerimeter=0;" edge="1" parent="1" source="YEOBfwv_ZGj8nD30T4eO-14" target="YEOBfwv_ZGj8nD30T4eO-10">
          <mxGeometry relative="1" as="geometry" />
        </mxCell>
        <mxCell id="YEOBfwv_ZGj8nD30T4eO-39" style="edgeStyle=orthogonalEdgeStyle;rounded=0;orthogonalLoop=1;jettySize=auto;html=1;exitX=1;exitY=0.5;exitDx=0;exitDy=0;exitPerimeter=0;entryX=0.25;entryY=0.5;entryDx=0;entryDy=0;entryPerimeter=0;" edge="1" parent="1" source="YEOBfwv_ZGj8nD30T4eO-4" target="YEOBfwv_ZGj8nD30T4eO-10">
          <mxGeometry relative="1" as="geometry" />
        </mxCell>
        <mxCell id="YEOBfwv_ZGj8nD30T4eO-41" style="edgeStyle=orthogonalEdgeStyle;rounded=0;orthogonalLoop=1;jettySize=auto;html=1;exitX=1;exitY=0.5;exitDx=0;exitDy=0;exitPerimeter=0;entryX=0.175;entryY=0.25;entryDx=0;entryDy=0;entryPerimeter=0;" edge="1" parent="1" source="YEOBfwv_ZGj8nD30T4eO-10" target="YEOBfwv_ZGj8nD30T4eO-12">
          <mxGeometry relative="1" as="geometry" />
        </mxCell>
        <mxCell id="YEOBfwv_ZGj8nD30T4eO-42" style="edgeStyle=orthogonalEdgeStyle;rounded=0;orthogonalLoop=1;jettySize=auto;html=1;exitX=1;exitY=0.5;exitDx=0;exitDy=0;exitPerimeter=0;entryX=0.25;entryY=0.5;entryDx=0;entryDy=0;entryPerimeter=0;" edge="1" parent="1" source="YEOBfwv_ZGj8nD30T4eO-6" target="YEOBfwv_ZGj8nD30T4eO-12">
          <mxGeometry relative="1" as="geometry" />
        </mxCell>
        <mxCell id="YEOBfwv_ZGj8nD30T4eO-43" style="edgeStyle=orthogonalEdgeStyle;rounded=0;orthogonalLoop=1;jettySize=auto;html=1;exitX=1;exitY=0.5;exitDx=0;exitDy=0;exitPerimeter=0;entryX=0.175;entryY=0.25;entryDx=0;entryDy=0;entryPerimeter=0;" edge="1" parent="1" source="YEOBfwv_ZGj8nD30T4eO-12" target="YEOBfwv_ZGj8nD30T4eO-13">
          <mxGeometry relative="1" as="geometry" />
        </mxCell>
        <mxCell id="YEOBfwv_ZGj8nD30T4eO-46" style="edgeStyle=orthogonalEdgeStyle;rounded=0;orthogonalLoop=1;jettySize=auto;html=1;exitX=1;exitY=0.5;exitDx=0;exitDy=0;exitPerimeter=0;entryX=0.25;entryY=0.5;entryDx=0;entryDy=0;entryPerimeter=0;" edge="1" parent="1" source="YEOBfwv_ZGj8nD30T4eO-8" target="YEOBfwv_ZGj8nD30T4eO-13">
          <mxGeometry relative="1" as="geometry" />
        </mxCell>
        <mxCell id="YEOBfwv_ZGj8nD30T4eO-55" value="" style="edgeStyle=orthogonalEdgeStyle;rounded=0;orthogonalLoop=1;jettySize=auto;html=1;entryX=0;entryY=0.75;entryDx=0;entryDy=0;entryPerimeter=0;" edge="1" parent="1" target="YEOBfwv_ZGj8nD30T4eO-54">
          <mxGeometry relative="1" as="geometry">
            <mxPoint x="100" y="78" as="targetPoint" />
            <mxPoint x="40" y="78" as="sourcePoint" />
          </mxGeometry>
        </mxCell>
        <mxCell id="YEOBfwv_ZGj8nD30T4eO-54" value="" style="ellipse;whiteSpace=wrap;html=1;aspect=fixed;" vertex="1" parent="1">
          <mxGeometry x="90" y="70" width="10" height="10" as="geometry" />
        </mxCell>
        <mxCell id="YEOBfwv_ZGj8nD30T4eO-62" style="edgeStyle=orthogonalEdgeStyle;rounded=0;orthogonalLoop=1;jettySize=auto;html=1;exitX=0;exitY=0.5;exitDx=0;exitDy=0;entryX=0;entryY=0.5;entryDx=0;entryDy=0;" edge="1" parent="1" target="YEOBfwv_ZGj8nD30T4eO-61">
          <mxGeometry relative="1" as="geometry">
            <mxPoint x="50" y="135.11764705882354" as="sourcePoint" />
          </mxGeometry>
        </mxCell>
        <mxCell id="YEOBfwv_ZGj8nD30T4eO-61" value="" style="ellipse;whiteSpace=wrap;html=1;aspect=fixed;" vertex="1" parent="1">
          <mxGeometry x="90" y="130" width="10" height="10" as="geometry" />
        </mxCell>
        <mxCell id="YEOBfwv_ZGj8nD30T4eO-69" style="edgeStyle=orthogonalEdgeStyle;rounded=0;orthogonalLoop=1;jettySize=auto;html=1;exitX=0;exitY=0.5;exitDx=0;exitDy=0;entryX=0;entryY=0.5;entryDx=0;entryDy=0;" edge="1" parent="1" target="YEOBfwv_ZGj8nD30T4eO-65">
          <mxGeometry relative="1" as="geometry">
            <mxPoint x="50" y="215.11764705882354" as="sourcePoint" />
          </mxGeometry>
        </mxCell>
        <mxCell id="YEOBfwv_ZGj8nD30T4eO-65" value="" style="ellipse;whiteSpace=wrap;html=1;aspect=fixed;" vertex="1" parent="1">
          <mxGeometry x="90" y="210" width="10" height="10" as="geometry" />
        </mxCell>
        <mxCell id="YEOBfwv_ZGj8nD30T4eO-72" style="edgeStyle=orthogonalEdgeStyle;rounded=0;orthogonalLoop=1;jettySize=auto;html=1;exitX=0;exitY=0.5;exitDx=0;exitDy=0;entryX=0;entryY=0.5;entryDx=0;entryDy=0;" edge="1" parent="1" target="YEOBfwv_ZGj8nD30T4eO-66">
          <mxGeometry relative="1" as="geometry">
            <mxPoint x="50" y="235.11764705882354" as="sourcePoint" />
          </mxGeometry>
        </mxCell>
        <mxCell id="YEOBfwv_ZGj8nD30T4eO-66" value="" style="ellipse;whiteSpace=wrap;html=1;aspect=fixed;" vertex="1" parent="1">
          <mxGeometry x="90" y="230" width="10" height="10" as="geometry" />
        </mxCell>
        <mxCell id="YEOBfwv_ZGj8nD30T4eO-79" style="edgeStyle=orthogonalEdgeStyle;rounded=0;orthogonalLoop=1;jettySize=auto;html=1;exitX=0;exitY=0.5;exitDx=0;exitDy=0;entryX=0;entryY=0.5;entryDx=0;entryDy=0;" edge="1" parent="1" target="YEOBfwv_ZGj8nD30T4eO-75">
          <mxGeometry relative="1" as="geometry">
            <mxPoint x="50" y="324.52941176470586" as="sourcePoint" />
          </mxGeometry>
        </mxCell>
        <mxCell id="YEOBfwv_ZGj8nD30T4eO-75" value="" style="ellipse;whiteSpace=wrap;html=1;aspect=fixed;" vertex="1" parent="1">
          <mxGeometry x="90" y="320" width="10" height="10" as="geometry" />
        </mxCell>
        <mxCell id="YEOBfwv_ZGj8nD30T4eO-88" style="edgeStyle=orthogonalEdgeStyle;rounded=0;orthogonalLoop=1;jettySize=auto;html=1;exitX=0;exitY=0.5;exitDx=0;exitDy=0;entryX=0;entryY=0.5;entryDx=0;entryDy=0;" edge="1" parent="1" target="YEOBfwv_ZGj8nD30T4eO-86">
          <mxGeometry relative="1" as="geometry">
            <mxPoint x="50" y="415.11764705882354" as="sourcePoint" />
          </mxGeometry>
        </mxCell>
        <mxCell id="YEOBfwv_ZGj8nD30T4eO-86" value="" style="ellipse;whiteSpace=wrap;html=1;aspect=fixed;" vertex="1" parent="1">
          <mxGeometry x="90" y="410" width="10" height="10" as="geometry" />
        </mxCell>
        <mxCell id="YEOBfwv_ZGj8nD30T4eO-92" style="edgeStyle=orthogonalEdgeStyle;rounded=0;orthogonalLoop=1;jettySize=auto;html=1;exitX=0;exitY=0.5;exitDx=0;exitDy=0;entryX=0;entryY=0.5;entryDx=0;entryDy=0;" edge="1" parent="1" target="YEOBfwv_ZGj8nD30T4eO-91">
          <mxGeometry relative="1" as="geometry">
            <mxPoint x="50" y="495.11764705882365" as="sourcePoint" />
          </mxGeometry>
        </mxCell>
        <mxCell id="YEOBfwv_ZGj8nD30T4eO-91" value="" style="ellipse;whiteSpace=wrap;html=1;aspect=fixed;" vertex="1" parent="1">
          <mxGeometry x="90" y="490" width="10" height="10" as="geometry" />
        </mxCell>
        <mxCell id="YEOBfwv_ZGj8nD30T4eO-93" value="&lt;h2&gt;a[0]&lt;/h2&gt;" style="text;html=1;align=center;verticalAlign=middle;resizable=0;points=[];autosize=1;strokeColor=none;fillColor=none;" vertex="1" parent="1">
          <mxGeometry x="-10" y="20" width="60" height="60" as="geometry" />
        </mxCell>
        <mxCell id="YEOBfwv_ZGj8nD30T4eO-94" value="&lt;h2&gt;b[0]&lt;/h2&gt;" style="text;html=1;align=center;verticalAlign=middle;resizable=0;points=[];autosize=1;strokeColor=none;fillColor=none;" vertex="1" parent="1">
          <mxGeometry x="-10" y="50" width="60" height="60" as="geometry" />
        </mxCell>
        <mxCell id="YEOBfwv_ZGj8nD30T4eO-95" value="&lt;h2&gt;a[0]&lt;/h2&gt;" style="text;html=1;align=center;verticalAlign=middle;resizable=0;points=[];autosize=1;strokeColor=none;fillColor=none;" vertex="1" parent="1">
          <mxGeometry x="-10" y="105" width="60" height="60" as="geometry" />
        </mxCell>
        <mxCell id="YEOBfwv_ZGj8nD30T4eO-96" value="&lt;h2&gt;b[0]&lt;/h2&gt;" style="text;html=1;align=center;verticalAlign=middle;resizable=0;points=[];autosize=1;strokeColor=none;fillColor=none;" vertex="1" parent="1">
          <mxGeometry x="-10" y="130" width="60" height="60" as="geometry" />
        </mxCell>
        <mxCell id="YEOBfwv_ZGj8nD30T4eO-98" value="&lt;h2&gt;a[0]&lt;/h2&gt;" style="text;html=1;align=center;verticalAlign=middle;resizable=0;points=[];autosize=1;strokeColor=none;fillColor=none;" vertex="1" parent="1">
          <mxGeometry x="-10" y="180" width="60" height="60" as="geometry" />
        </mxCell>
        <mxCell id="YEOBfwv_ZGj8nD30T4eO-99" value="&lt;h2&gt;a[1]&lt;/h2&gt;" style="text;html=1;align=center;verticalAlign=middle;resizable=0;points=[];autosize=1;strokeColor=none;fillColor=none;" vertex="1" parent="1">
          <mxGeometry x="-10" y="205" width="60" height="60" as="geometry" />
        </mxCell>
        <mxCell id="YEOBfwv_ZGj8nD30T4eO-103" value="&lt;h2&gt;b[1]&lt;/h2&gt;" style="text;html=1;align=center;verticalAlign=middle;resizable=0;points=[];autosize=1;strokeColor=none;fillColor=none;" vertex="1" parent="1">
          <mxGeometry x="-10" y="230" width="60" height="60" as="geometry" />
        </mxCell>
        <mxCell id="YEOBfwv_ZGj8nD30T4eO-104" value="&lt;h2&gt;b[1]&lt;/h2&gt;" style="text;html=1;align=center;verticalAlign=middle;resizable=0;points=[];autosize=1;strokeColor=none;fillColor=none;" vertex="1" parent="1">
          <mxGeometry x="-10" y="265" width="60" height="60" as="geometry" />
        </mxCell>
        <mxCell id="YEOBfwv_ZGj8nD30T4eO-110" value="&lt;h2&gt;a[1]&lt;/h2&gt;" style="text;html=1;align=center;verticalAlign=middle;resizable=0;points=[];autosize=1;strokeColor=none;fillColor=none;" vertex="1" parent="1">
          <mxGeometry x="-10" y="280" width="60" height="60" as="geometry" />
        </mxCell>
        <mxCell id="YEOBfwv_ZGj8nD30T4eO-111" value="&lt;h2&gt;b[0]&lt;/h2&gt;" style="text;html=1;align=center;verticalAlign=middle;resizable=0;points=[];autosize=1;strokeColor=none;fillColor=none;" vertex="1" parent="1">
          <mxGeometry x="-10" y="300" width="60" height="60" as="geometry" />
        </mxCell>
        <mxCell id="YEOBfwv_ZGj8nD30T4eO-113" value="&lt;h2&gt;a[1]&lt;/h2&gt;" style="text;html=1;align=center;verticalAlign=middle;resizable=0;points=[];autosize=1;strokeColor=none;fillColor=none;" vertex="1" parent="1">
          <mxGeometry x="-10" y="340" width="60" height="60" as="geometry" />
        </mxCell>
        <mxCell id="YEOBfwv_ZGj8nD30T4eO-118" value="&lt;h2&gt;b[0]&lt;/h2&gt;" style="text;html=1;align=center;verticalAlign=middle;resizable=0;points=[];autosize=1;strokeColor=none;fillColor=none;" vertex="1" parent="1">
          <mxGeometry x="-10" y="365" width="60" height="60" as="geometry" />
        </mxCell>
        <mxCell id="YEOBfwv_ZGj8nD30T4eO-121" value="&lt;h2&gt;b[1]&lt;/h2&gt;" style="text;html=1;align=center;verticalAlign=middle;resizable=0;points=[];autosize=1;strokeColor=none;fillColor=none;" vertex="1" parent="1">
          <mxGeometry x="-10" y="390" width="60" height="60" as="geometry" />
        </mxCell>
        <mxCell id="YEOBfwv_ZGj8nD30T4eO-122" value="&lt;h2&gt;a[0]&lt;/h2&gt;" style="text;html=1;align=center;verticalAlign=middle;resizable=0;points=[];autosize=1;strokeColor=none;fillColor=none;" vertex="1" parent="1">
          <mxGeometry x="-10" y="433" width="60" height="60" as="geometry" />
        </mxCell>
        <mxCell id="YEOBfwv_ZGj8nD30T4eO-123" value="&lt;h2&gt;a[1]&lt;/h2&gt;" style="text;html=1;align=center;verticalAlign=middle;resizable=0;points=[];autosize=1;strokeColor=none;fillColor=none;" vertex="1" parent="1">
          <mxGeometry x="-10" y="450" width="60" height="60" as="geometry" />
        </mxCell>
        <mxCell id="YEOBfwv_ZGj8nD30T4eO-124" value="&lt;h2&gt;b[1]&lt;/h2&gt;" style="text;html=1;align=center;verticalAlign=middle;resizable=0;points=[];autosize=1;strokeColor=none;fillColor=none;" vertex="1" parent="1">
          <mxGeometry x="-10" y="470" width="60" height="60" as="geometry" />
        </mxCell>
        <mxCell id="YEOBfwv_ZGj8nD30T4eO-125" value="&lt;h2&gt;red&lt;/h2&gt;" style="text;html=1;align=center;verticalAlign=middle;resizable=0;points=[];autosize=1;strokeColor=none;fillColor=none;" vertex="1" parent="1">
          <mxGeometry x="780" y="380" width="50" height="60" as="geometry" />
        </mxCell>
      </root>
    </mxGraphModel>
  </diagram>
</mxfile>
